<svg id="Layer_1" data-name="Layer 1" xmlns="http://www.w3.org/2000/svg" viewBox="0 0 512 512"><defs><style>.cls-1{fill:#2b374f;}</style></defs><title>grave-glyph</title><path class="cls-1" d="M200.95,226.09a11,11,0,0,0-7.36-2.56H180.22v19.6h13.36q5,0,7.68-2.87a10,10,0,0,0,2.69-7.11A8.78,8.78,0,0,0,200.95,226.09Z"/><path class="cls-1" d="M317.67,222.78H306.81v24.34h10.86a15.4,15.4,0,0,0,5.74-1,12.3,12.3,0,0,0,4.18-2.69,11.46,11.46,0,0,0,2.56-3.87A12.18,12.18,0,0,0,331,235q0-6-3.68-9.11A14.45,14.45,0,0,0,317.67,222.78Z"/><path class="cls-1" d="M473.6,396.8H454.4V198.4C454.4,89,365.4,0,256,0S57.6,89,57.6,198.4V396.8H38.4A38.44,38.44,0,0,0,0,435.2v38.4A38.44,38.44,0,0,0,38.4,512H473.6A38.44,38.44,0,0,0,512,473.6V435.2A38.44,38.44,0,0,0,473.6,396.8ZM224.79,287.14a9,9,0,0,1-1.75,3,10.67,10.67,0,0,1-3.25,2.51,10.45,10.45,0,0,1-4.87,1q-4,0-5.87-1.3a18.1,18.1,0,0,1-3.74-3.65l-24.85-31.07-.25-.3v25.59q0,5.37-2.87,8.05a11.15,11.15,0,0,1-14.48,0q-2.88-2.66-2.87-8V214.83a9.22,9.22,0,0,1,3.06-7.43,10.57,10.57,0,0,1,7.05-2.6h24.34a35.62,35.62,0,0,1,12.23,2,27.06,27.06,0,0,1,9.36,5.62,25,25,0,0,1,6,8.68,29,29,0,0,1,2.12,11.3q0,9.86-5.55,16.54t-15.17,8.42L221,276a19.72,19.72,0,0,1,3.18,4.16,9.11,9.11,0,0,1,1.06,4.4A8.75,8.75,0,0,1,224.79,287.14Zm39.57-4q0,5.28-2.87,7.92A11.25,11.25,0,0,1,247,291q-2.88-2.64-2.87-7.92V215.36q0-5.28,2.87-7.92a11.25,11.25,0,0,1,14.48,0q2.87,2.64,2.87,7.92ZM350.07,247a26.78,26.78,0,0,1-5.74,9.55,26,26,0,0,1-9.36,6.3,34,34,0,0,1-12.8,2.25H306.81v18.13q0,5.23-2.87,7.85a10.35,10.35,0,0,1-7.24,2.61,10.22,10.22,0,0,1-7.24-2.66q-2.88-2.66-2.87-8V214.83a9.22,9.22,0,0,1,3.06-7.43,10.57,10.57,0,0,1,7.05-2.6h24.84a35,35,0,0,1,11.36,1.87,27.49,27.49,0,0,1,16.54,15.17A31.82,31.82,0,0,1,352,235,35.81,35.81,0,0,1,350.07,247Z"/></svg>